# xmcd
#
# Track frame offsets:
# 150
# 17091
# 37036
# 53215
# 72033
# 90034
# 108111
# 125481
# 141471
# 158683
# 180640
# 198409
# 218539
# 237594
# 258886
# 277806
# 297348
# 313661
#
# Disc length: 4394 seconds
#
#
# Revision: 0
# Processed by: cddbd v1.5.2PL0 Copyright (c) Steve Scherf et al.
# Submitted via: FreeRIP 2.95 
#
DISCID=f9112812
DTITLE=Edigar Mao Branca - O Forro Federal
DYEAR=2007
DGENRE=Forro
TTITLE0=Outra Vez Sao Joao
TTITLE1=Vou Cuidar De Nos Dois
TTITLE2=Sao Joao E Bahia
TTITLE3=Viver Do Campo Como
TTITLE4=Paixao Junina
TTITLE5=Romance Capenga
TTITLE6=Cavalgada
TTITLE7=Sem Ela
TTITLE8=Recado Ao Presidente
TTITLE9=Um Minuto Sem Voce
TTITLE10=Suando A Regada
TTITLE11=Palhacada
TTITLE12=Sao Joaozando Pela Bahia
TTITLE13=Carencia E Paixao
TTITLE14=Gabiraba
TTITLE15=Nasci E Vou Morrer Vaqueiro
TTITLE16=Nem Vem Que Nao Tem
TTITLE17=Inkaibar A Veia
EXTD=
EXTT0=
EXTT1=
EXTT2=
EXTT3=
EXTT4=
EXTT5=
EXTT6=
EXTT7=
EXTT8=
EXTT9=
EXTT10=
EXTT11=
EXTT12=
EXTT13=
EXTT14=
EXTT15=
EXTT16=
EXTT17=
PLAYORDER=
